<?xml version="1.0"?>
<svg xmlns="http://www.w3.org/2000/svg" viewBox="0 0 64 64" width="512" height="512"><g id="Link"><path d="M28,17V5.414L15.414,18H27A1,1,0,0,0,28,17Z"/><path d="M9,52h3V19a1,1,0,0,1,.293-.707L22.586,8H9A1,1,0,0,0,8,9V51A1,1,0,0,0,9,52Z"/><path d="M29.983,42.7a8.008,8.008,0,0,1,7.706-2.049l2.963-2.963A8.026,8.026,0,0,1,42.7,29.983l5.66-5.66a7.943,7.943,0,0,1,5.657-2.341,8.056,8.056,0,0,1,1.98.255V5a1,1,0,0,0-1-1H30V17a3,3,0,0,1-3,3H14V55a1,1,0,0,0,1,1h7.237a8.056,8.056,0,0,1-.255-1.98,7.943,7.943,0,0,1,2.341-5.657Z"/><path d="M45.535,35.636,34.222,46.95a2,2,0,1,0,2.829,2.828L48.364,38.464a2,2,0,1,0-2.829-2.828Z"/><path d="M29.979,60.018a5.959,5.959,0,0,0,4.244-1.755l5.66-5.66A5.961,5.961,0,0,0,41.64,48.36c0-.108-.022-.209-.027-.316l-8.807,8.8a4,4,0,1,1-5.653-5.655l8.814-8.817a6.024,6.024,0,0,0-4.57,1.741l-5.66,5.66a6,6,0,0,0,4.242,10.241Z"/><path d="M50.8,36.034l4.632-4.64a2,2,0,1,0-2.825-2.827L47.966,33.2A3.874,3.874,0,0,1,50.8,36.034Z"/><path d="M60.02,29.98a6,6,0,0,0-10.243-4.243l-5.66,5.66a6.028,6.028,0,0,0-1.741,4.57l8.818-8.815a4,4,0,1,1,5.653,5.655l-8.813,8.816a6.028,6.028,0,0,0,4.569-1.74l5.66-5.66A5.961,5.961,0,0,0,60.02,29.98Z"/><path d="M56,55V39.314L54.017,41.3a8.032,8.032,0,0,1-7.723,2.066l-2.928,2.928a7.807,7.807,0,0,1,.274,2.069A7.946,7.946,0,0,1,41.3,54.017L39.314,56H55A1,1,0,0,0,56,55Z"/><path d="M31.784,49.385l-3.216,3.221a2,2,0,1,0,2.825,2.827l3.225-3.219a3.886,3.886,0,0,1-2.834-2.829Z"/></g></svg>
